<svg xmlns="http://www.w3.org/2000/svg" width="176.3" height="60.1"><path fill="none" stroke="#21A038" stroke-width="1.5" stroke-miterlimit="22.9" d="M174.7 40H48.3V1.7h126.4V40zM23.2 29.6v7.2m10.5 18.7v-7.8h23.5m11.3 0h5v7.6h-5m-39-6.3h4.2m-5 6.3h28.5m-39.4.2L5 54.5c-2.5-.1-3.1-4-3.3-6l2.1-.7c-.2-9.1-.4-22 4.6-30 4.2-6.8 8.1-8.9 19-8.9h14v21.6c0 4.2-6 7-8.7 8.4L19.6 46M3.9 47.7h9.8M2.4 51.2h2.8m2-7.1v-1.3m0-4.8v-1.3m0 4.3v-1.3m24.2 0l3.2 3.4h3.7l4 4.6m12 0L50 42.4h10.5M21 33.7v2.1m45.2 15.9c0 1.8-1.5 3.4-3.4 3.4-2 0-3.5-1.6-3.5-3.4 0-2 1.6-3.5 3.5-3.5s3.4 1.6 3.4 3.5zm3.4 0c0 3.7-3 6.7-6.8 6.7s-6.8-3-6.8-6.7c0-3.8 3-6.8 6.8-6.8 3.7 0 6.8 3 6.8 6.8zm71.4 0c0 1.8-1.5 3.4-3.5 3.4-1.9 0-3.4-1.6-3.4-3.4 0-2 1.5-3.5 3.4-3.5 2 0 3.5 1.6 3.5 3.5zm3.3 0c0 3.7-3 6.7-6.8 6.7-3.7 0-6.7-3-6.7-6.7 0-3.8 3-6.8 6.8-6.8 3.7 0 6.7 3 6.7 6.8zm13 0c0 1.8-1.5 3.4-3.4 3.4-2 0-3.5-1.6-3.5-3.4 0-2 1.6-3.5 3.5-3.5s3.4 1.6 3.4 3.5zm3.4 0c0 3.7-3 6.7-6.8 6.7s-6.8-3-6.8-6.7c0-3.8 3-6.8 6.8-6.8 3.7 0 6.8 3 6.8 6.8zM6.7 21.5c4.7-.7 18.9-1 21.8-1 1.2-.1 1.9 0 1.8 1-.4 3.8-.8 6.6-5.8 8-4 1-15 1.6-19.8 1.6m25.4 20.6c0 3.7-3 6.7-6.8 6.7-3.7 0-6.8-3-6.8-6.7s3-6.8 6.8-6.8 6.8 3 6.8 6.8zm-3.3 0c0 1.8-1.6 3.4-3.5 3.4S20 53.5 20 51.7c0-2 1.5-3.5 3.4-3.5 2 0 3.5 1.6 3.5 3.5zM78.3 40v10h52.3m30 0h12.8V40m-29.3 10h3m-99.7-2.2v7.4m-38-34l-.7 3.1-1.4 2.3"/><g fill="#21A038"><path d="M106.3 19.1h-2.7v.3c-.3 5.2-1.2 5.8-2.2 5.8l-.6-.1v-1.3h.3c.5 0 1-.3 1.3-4.4V18h5.2v7.2h-1.3v-6zM112.8 17.8c2.3 0 3.8 1.4 3.8 3.7 0 2.2-1.5 3.7-3.8 3.7s-3.9-1.4-3.9-3.7c0-2.2 1.5-3.7 3.9-3.7m0 6.2c1.5 0 2.4-1 2.4-2.5 0-1.4-.8-2.5-2.4-2.5-1.6 0-2.5 1-2.5 2.5 0 1.4.8 2.5 2.5 2.5M122.8 19.1h-3.6v6h-1.3v-7.2h4.9zM125.2 23.3l3.8-5.4h1.4v7.2h-1.2v-5.4l-4 5.4H124v-7.2h1.3zM138.2 24.3c-.4.4-1.3.9-2.5.9-2.4 0-4-1.4-4-3.7 0-2.2 1.6-3.7 4-3.7 1 0 2 .4 2.3.7v1.7a3 3 0 00-2.3-1.2c-1.6 0-2.5 1-2.5 2.5 0 1.4.8 2.5 2.4 2.5 1.3 0 2.2-.6 2.6-1.3v1.6zM144.8 19.1h-2.4v6H141v-6h-2.4v-1.2h6zM147.1 23.3l4-5.4h1.3v7.2h-1.3v-5.4l-3.9 5.4H146v-7.2h1.2zM155.5 25h-1.2v-7h1.2v3h1.1l2.3-3h1.5l-2.7 3.3 3.2 3.8h-1.7l-2.5-3.1h-1.2zM165.5 18l3 7H167l-.7-1.6H163l-.7 1.7h-1.2l2.8-7.2h1.5zm-2 4.2h2.4l-1.1-3-1.2 3z"/></g><path fill="#21A038" d="M89.2 19.1l1.6-1.2h-5.4v7.2h5.4v-1.2H87V22h3.3v-1.2H87V19zM81.4 20.7h-2v-1.6h3l1.7-1.2h-6.2v7.2h3.3c1.8 0 2.8-.9 2.8-2.3 0-1.3-1-2-2.6-2zM81 24h-1.6v-2H81c1 0 1.4.3 1.4 1s-.5 1-1.4 1zM95.2 18h-3v7h1.6v-2h1.4c1.9 0 3-1 3-2.5 0-1.6-1.1-2.6-3-2.6zm0 3.9h-1.4V19h1.4c1 0 1.5.5 1.5 1.4s-.6 1.4-1.5 1.4zM75.3 23.5c-.4.2-.9.4-1.3.4-1.4 0-2.4-1-2.4-2.4s1-2.4 2.4-2.4c.5 0 1 .2 1.4.5l1-.8v-.1c-.6-.6-1.5-.9-2.5-.9s-2 .4-2.7 1c-.7.7-1 1.6-1 2.7 0 1 .3 2 1 2.6.7.7 1.6 1 2.7 1s2-.3 2.7-1l-1-.8-.3.2zM66.5 21.5v-1l-1.3.9v.1a4.6 4.6 0 11-2-3.8l1.1-.8a6 6 0 102.2 4.6zm-1.2-3.6c.3.3.5.7.7 1.2l-5.4 4-2.2-1.5V20l2.2 1.4 4.7-3.4z"/></svg>